<svg width="100%" height="100%" viewBox="0 0 1200 800" xmlns="http://www.w3.org/2000/svg">
  <defs>
    <filter id="blur1" x="0" y="0">
      <feGaussianBlur in="SourceGraphic" stdDeviation="10" />
    </filter>
    <filter id="glow" x="-50%" y="-50%" width="200%" height="200%">
      <feGaussianBlur in="SourceGraphic" stdDeviation="8" result="blur"/>
      <feMerge> 
        <feMergeNode in="blur"/>
        <feMergeNode in="SourceGraphic"/> 
      </feMerge>
    </filter>
  </defs>
  
  <!-- Background gradient -->
  <rect width="100%" height="100%" fill="#dbeafe"/>
  
  <!-- Sky and grass transition -->
  <path d="M-100,400 Q300,300 600,400 T1300,350 L1300,800 L-100,800 Z" fill="#e0f2fe" opacity="0.7"/>
  
  <!-- Organic network of nodes and connections -->
  <!-- Main connection lines -->
  <path d="M200,400 Q400,300 600,400 T1000,400" stroke="#c7d2fe" stroke-width="3" fill="none" opacity="0.5"/>
  <path d="M300,500 Q500,350 700,450 T1000,500" stroke="#c7d2fe" stroke-width="2" fill="none" opacity="0.5"/>
  <path d="M400,350 Q600,250 800,350 T1100,380" stroke="#c7d2fe" stroke-width="2" fill="none" opacity="0.5"/>
  
  <!-- Nodes -->
  <circle cx="200" cy="400" r="12" fill="#818cf8" filter="url(#glow)"/>
  <circle cx="400" cy="350" r="10" fill="#4f46e5" filter="url(#glow)"/>
  <circle cx="600" cy="400" r="12" fill="#818cf8" filter="url(#glow)"/>
  <circle cx="800" cy="350" r="10" fill="#4f46e5" filter="url(#glow)"/>
  <circle cx="1000" cy="400" r="12" fill="#818cf8" filter="url(#glow)"/>
  
  <circle cx="300" cy="500" r="10" fill="#4f46e5" filter="url(#glow)"/>
  <circle cx="500" cy="350" r="10" fill="#4f46e5" filter="url(#glow)"/>
  <circle cx="700" cy="450" r="10" fill="#4f46e5" filter="url(#glow)"/>
  <circle cx="1000" cy="500" r="10" fill="#4f46e5" filter="url(#glow)"/>
  
  <!-- Data flow effects -->
  <circle cx="300" cy="450" r="5" fill="#c7d2fe" opacity="0.7">
    <animate attributeName="opacity" values="0.2;0.7;0.2" dur="3s" repeatCount="indefinite"/>
  </circle>
  <circle cx="500" cy="425" r="5" fill="#c7d2fe" opacity="0.7">
    <animate attributeName="opacity" values="0.2;0.7;0.2" dur="3s" repeatCount="indefinite" begin="0.5s"/>
  </circle>
  <circle cx="700" cy="425" r="5" fill="#c7d2fe" opacity="0.7">
    <animate attributeName="opacity" values="0.2;0.7;0.2" dur="3s" repeatCount="indefinite" begin="1s"/>
  </circle>
  
  <!-- Silhouette of bicycle and rider moving across the scene -->
  <g opacity="0.3" transform="translate(100, 600) rotate(-10)">
    <circle cx="0" cy="-30" r="15" fill="#cbd5e1"/>  <!-- Rider -->
    <circle cx="0" cy="10" r="12" fill="#64748b"/>  <!-- Wheel -->
    <circle cx="30" cy="10" r="12" fill="#64748b"/>  <!-- Wheel -->
    <line x1="0" y1="-30" x2="30" y2="0" stroke="#94a3b8" stroke-width="4"/>  <!-- Frame -->
    <rect x="-5" y="-45" width="10" height="15" fill="#e2e8f0" rx="2"/>  <!-- AI passenger -->
  </g>
  
  <!-- Subtle light rays -->
  <line x1="600" y1="100" x2="200" y2="400" stroke="#c7d2fe" stroke-width="1" opacity="0.2"/>
  <line x1="600" y1="100" x2="400" y2="350" stroke="#c7d2fe" stroke-width="1" opacity="0.2"/>
  <line x1="600" y1="100" x2="600" y2="400" stroke="#c7d2fe" stroke-width="1" opacity="0.2"/>
  <line x1="600" y1="100" x2="800" y2="350" stroke="#c7d2fe" stroke-width="1" opacity="0.2"/>
  <line x1="600" y1="100" x2="1000" y2="400" stroke="#c7d2fe" stroke-width="1" opacity="0.2"/>
</svg>