<svg width="100%" height="100%" viewBox="0 0 1200 800" xmlns="http://www.w3.org/2000/svg">
  <defs>
    <filter id="glow1" x="-50%" y="-50%" width="200%" height="200%">
      <feGaussianBlur in="SourceGraphic" stdDeviation="8" result="blur"/>
      <feMerge> 
        <feMergeNode in="blur"/>
        <feMergeNode in="SourceGraphic"/> 
      </feMerge>
    </filter>
    <linearGradient id="skyGradient" x1="0%" y1="0%" x2="0%" y2="100%">
      <stop offset="0%" stop-color="#fef3c7" />
      <stop offset="100%" stop-color="#e0e7ff" />
    </linearGradient>
  </defs>
  
  <!-- Background gradient for sunset -->
  <rect width="100%" height="100%" fill="url(#skyGradient)"/>
  
  <!-- Sun on horizon -->
  <circle cx="950" cy="650" r="80" fill="#fbbf24" opacity="0.8"/>
  <circle cx="950" cy="650" r="120" fill="#fbbf24" opacity="0.4"/>
  
  <!-- Horizon line -->
  <path d="M-100,650 Q300,600 700,650 T1300,630" fill="none" stroke="#fde68a" stroke-width="2" opacity="0.5"/>
  
  <!-- Distant hills -->
  <path d="M-100,700 Q200,650 500,700 T1200,680 L1200,800 L-100,800 Z" fill="#c7d2fe" opacity="0.4"/>
  
  <!-- Grass area -->
  <path d="M-100,650 Q200,620 500,650 T1200,630 L1200,800 L-100,800 Z" fill="#a7f3d0" opacity="0.4"/>
  
  <!-- Sitting silhouettes -->
  <g transform="translate(550, 680)">
    <!-- Human figure -->
    <ellipse cx="0" cy="-40" rx="12" ry="18" fill="#1e293b"/>  <!-- Seated body -->
    <circle cx="0" cy="-55" r="10" fill="#1e293b"/>  <!-- Head -->
    <rect x="-15" y="-35" width="8" height="25" fill="#1e293b" transform="rotate(-20 -11 -23)"/>  <!-- Leg -->
    <rect x="7" y="-35" width="8" height="25" fill="#1e293b" transform="rotate(20 11 -23)"/>  <!-- Leg -->
    
    <!-- Robot companion -->
    <rect x="40" y="-45" width="18" height="45" fill="#e2e8f0" rx="4"/>  <!-- Robot body -->
    <rect x="47" y="-52" width="6" height="6" fill="#60a5fa" rx="3"/>  <!-- Robot eye -->
    
    <!-- Robot leg/foot -->
    <rect x="43" y="0" width="6" height="10" fill="#cbd5e1" rx="2"/>
    <rect x="50" y="0" width="6" height="10" fill="#cbd5e1" rx="2"/>
  </g>
  
  <!-- Sky particles/stars -->
  <circle cx="100" cy="100" r="2" fill="#4f46e5" opacity="0.7">
    <animate attributeName="opacity" values="0.2;0.7;0.2" dur="3s" repeatCount="indefinite"/>
  </circle>
  <circle cx="200" cy="150" r="2" fill="#4f46e5" opacity="0.7">
    <animate attributeName="opacity" values="0.2;0.7;0.2" dur="4s" repeatCount="indefinite" begin="1s"/>
  </circle>
  <circle cx="400" cy="80" r="3" fill="#4f46e5" opacity="0.7">
    <animate attributeName="opacity" values="0.2;0.7;0.2" dur="5s" repeatCount="indefinite" begin="2s"/>
  </circle>
  <circle cx="600" cy="120" r="2" fill="#4f46e5" opacity="0.7">
    <animate attributeName="opacity" values="0.2;0.7;0.2" dur="3.5s" repeatCount="indefinite" begin="0.5s"/>
  </circle>
  <circle cx="800" cy="60" r="3" fill="#4f46e5" opacity="0.7">
    <animate attributeName="opacity" values="0.2;0.7;0.2" dur="4.5s" repeatCount="indefinite" begin="1.5s"/>
  </circle>
  
  <!-- Tech texture overlay -->
  <g opacity="0.1">
    <path d="M200,200 L250,180 L300,200 L250,220 Z" stroke="#1e293b" fill="none"/>
    <path d="M400,150 L450,130 L500,150 L450,170 Z" stroke="#1e293b" fill="none"/>
    <path d="M600,250 L650,230 L700,250 L650,270 Z" stroke="#1e293b" fill="none"/>
    <path d="M800,180 L850,160 L900,180 L850,200 Z" stroke="#1e293b" fill="none"/>
    
    <!-- Connecting lines -->
    <line x1="250" y1="220" x2="450" y2="170" stroke="#1e293b" stroke-width="1"/>
    <line x1="450" y1="170" x2="650" y2="270" stroke="#1e293b" stroke-width="1"/>
    <line x1="650" y1="270" x2="850" y2="200" stroke="#1e293b" stroke-width="1"/>
  </g>
  
  <!-- LED light on robot -->
  <circle cx="50" cy="-49" r="3" fill="#60a5fa" filter="url(#glow1)">
    <animate attributeName="opacity" values="0.5;1;0.5" dur="2s" repeatCount="indefinite"/>
  </circle>
  
  <!-- Light rays from sun -->
  <line x1="950" y1="650" x2="550" y2="680" stroke="#fde68a" stroke-width="1" opacity="0.3"/>
  <line x1="950" y1="650" x2="600" y2="600" stroke="#fde68a" stroke-width="1" opacity="0.3"/>
  <line x1="950" y1="650" x2="700" y2="500" stroke="#fde68a" stroke-width="1" opacity="0.3"/>
  <line x1="950" y1="650" x2="800" y2="400" stroke="#fde68a" stroke-width="1" opacity="0.3"/>
  <line x1="950" y1="650" x2="900" y2="300" stroke="#fde68a" stroke-width="1" opacity="0.3"/>
</svg>